<mxfile host="app.diagrams.net" modified="2022-06-15T16:17:05.757Z" agent="5.0 (Macintosh; Intel Mac OS X 10_15_7) AppleWebKit/537.36 (KHTML, like Gecko) Chrome/102.0.0.0 Safari/537.36" etag="VmbDvIOw-fk_BLOwFNkU" version="20.0.1" type="github">
  <diagram id="C5RBs43oDa-KdzZeNtuy" name="Page-1">
    <mxGraphModel dx="2497" dy="1606" grid="1" gridSize="10" guides="1" tooltips="1" connect="1" arrows="1" fold="1" page="1" pageScale="1" pageWidth="1169" pageHeight="827" math="0" shadow="0">
      <root>
        <mxCell id="WIyWlLk6GJQsqaUBKTNV-0" />
        <mxCell id="WIyWlLk6GJQsqaUBKTNV-1" parent="WIyWlLk6GJQsqaUBKTNV-0" />
        <mxCell id="nBL5Dy7I-TsLyUY3IK7N-0" value="My Page" style="ellipse;whiteSpace=wrap;html=1;sketch=1;fillColor=#dae8fc;strokeColor=#6c8ebf;" vertex="1" parent="WIyWlLk6GJQsqaUBKTNV-1">
          <mxGeometry x="555" y="20" width="120" height="80" as="geometry" />
        </mxCell>
        <mxCell id="nBL5Dy7I-TsLyUY3IK7N-6" value="투어 신청 현황" style="rounded=1;whiteSpace=wrap;html=1;sketch=1;fillColor=#e1d5e7;strokeColor=#9673a6;" vertex="1" parent="WIyWlLk6GJQsqaUBKTNV-1">
          <mxGeometry x="360" y="174" width="120" height="60" as="geometry" />
        </mxCell>
        <mxCell id="nBL5Dy7I-TsLyUY3IK7N-7" value="투어 예약 확인" style="whiteSpace=wrap;html=1;rounded=1;sketch=1;fillColor=#d5e8d4;strokeColor=#82b366;" vertex="1" parent="WIyWlLk6GJQsqaUBKTNV-1">
          <mxGeometry x="370.5" y="388" width="99" height="52" as="geometry" />
        </mxCell>
        <mxCell id="nBL5Dy7I-TsLyUY3IK7N-8" value="" style="endArrow=none;html=1;rounded=0;sketch=1;entryX=0.5;entryY=1;entryDx=0;entryDy=0;" edge="1" parent="WIyWlLk6GJQsqaUBKTNV-1">
          <mxGeometry width="50" height="50" relative="1" as="geometry">
            <mxPoint x="420" y="384" as="sourcePoint" />
            <mxPoint x="420" y="236" as="targetPoint" />
            <Array as="points">
              <mxPoint x="420" y="266" />
            </Array>
          </mxGeometry>
        </mxCell>
        <mxCell id="nBL5Dy7I-TsLyUY3IK7N-9" value="나의 계정 (기본정보)" style="rounded=1;whiteSpace=wrap;html=1;sketch=1;fillColor=#e1d5e7;strokeColor=#9673a6;" vertex="1" parent="WIyWlLk6GJQsqaUBKTNV-1">
          <mxGeometry x="60" y="170" width="120" height="60" as="geometry" />
        </mxCell>
        <mxCell id="nBL5Dy7I-TsLyUY3IK7N-10" value="회원 정보&amp;nbsp;&amp;nbsp;" style="whiteSpace=wrap;html=1;rounded=1;sketch=1;fillColor=#d5e8d4;strokeColor=#82b366;" vertex="1" parent="WIyWlLk6GJQsqaUBKTNV-1">
          <mxGeometry x="70.5" y="328" width="99" height="52" as="geometry" />
        </mxCell>
        <mxCell id="nBL5Dy7I-TsLyUY3IK7N-11" value="" style="endArrow=none;html=1;rounded=0;sketch=1;entryX=0.5;entryY=1;entryDx=0;entryDy=0;exitX=0.5;exitY=0;exitDx=0;exitDy=0;" edge="1" parent="WIyWlLk6GJQsqaUBKTNV-1" source="nBL5Dy7I-TsLyUY3IK7N-10">
          <mxGeometry width="50" height="50" relative="1" as="geometry">
            <mxPoint x="120" y="290" as="sourcePoint" />
            <mxPoint x="120" y="232" as="targetPoint" />
            <Array as="points">
              <mxPoint x="120" y="262" />
            </Array>
          </mxGeometry>
        </mxCell>
        <mxCell id="nBL5Dy7I-TsLyUY3IK7N-35" value="" style="edgeStyle=orthogonalEdgeStyle;rounded=0;sketch=1;orthogonalLoop=1;jettySize=auto;html=1;fontColor=#000000;" edge="1" parent="WIyWlLk6GJQsqaUBKTNV-1" source="nBL5Dy7I-TsLyUY3IK7N-15" target="nBL5Dy7I-TsLyUY3IK7N-34">
          <mxGeometry relative="1" as="geometry">
            <Array as="points">
              <mxPoint x="805" y="204" />
              <mxPoint x="805" y="264" />
            </Array>
          </mxGeometry>
        </mxCell>
        <mxCell id="nBL5Dy7I-TsLyUY3IK7N-15" value="계약 정보&amp;nbsp;" style="rounded=1;whiteSpace=wrap;html=1;sketch=1;fillColor=#e1d5e7;strokeColor=#9673a6;" vertex="1" parent="WIyWlLk6GJQsqaUBKTNV-1">
          <mxGeometry x="650" y="174" width="120" height="60" as="geometry" />
        </mxCell>
        <mxCell id="nBL5Dy7I-TsLyUY3IK7N-16" value="&lt;div style=&quot;font-family: Menlo, Monaco, &amp;quot;Courier New&amp;quot;, monospace; line-height: 18px;&quot;&gt;&lt;span style=&quot;background-color: rgb(255, 255, 255);&quot;&gt;célib &lt;br&gt;life &amp;amp; stay&lt;/span&gt;&lt;/div&gt;" style="whiteSpace=wrap;html=1;rounded=1;sketch=1;fillColor=#b0e3e6;strokeColor=#0e8088;" vertex="1" parent="WIyWlLk6GJQsqaUBKTNV-1">
          <mxGeometry x="661" y="294" width="99" height="52" as="geometry" />
        </mxCell>
        <mxCell id="nBL5Dy7I-TsLyUY3IK7N-17" value="" style="endArrow=none;html=1;rounded=0;sketch=1;entryX=0.5;entryY=1;entryDx=0;entryDy=0;" edge="1" parent="WIyWlLk6GJQsqaUBKTNV-1">
          <mxGeometry width="50" height="50" relative="1" as="geometry">
            <mxPoint x="710" y="294" as="sourcePoint" />
            <mxPoint x="710" y="236" as="targetPoint" />
            <Array as="points">
              <mxPoint x="710" y="266" />
            </Array>
          </mxGeometry>
        </mxCell>
        <mxCell id="nBL5Dy7I-TsLyUY3IK7N-18" value="&lt;div style=&quot;font-family: Menlo, Monaco, &amp;quot;Courier New&amp;quot;, monospace; line-height: 18px;&quot;&gt;&lt;span style=&quot;background-color: rgb(255, 255, 255);&quot;&gt;&amp;nbsp;célib &lt;br&gt;select&lt;/span&gt;&lt;/div&gt;" style="whiteSpace=wrap;html=1;rounded=1;sketch=1;fillColor=#b0e3e6;strokeColor=#0e8088;" vertex="1" parent="WIyWlLk6GJQsqaUBKTNV-1">
          <mxGeometry x="661" y="374" width="99" height="52" as="geometry" />
        </mxCell>
        <mxCell id="nBL5Dy7I-TsLyUY3IK7N-24" value="" style="endArrow=none;html=1;rounded=0;sketch=1;entryX=0.5;entryY=1;entryDx=0;entryDy=0;" edge="1" parent="WIyWlLk6GJQsqaUBKTNV-1">
          <mxGeometry width="50" height="50" relative="1" as="geometry">
            <mxPoint x="711" y="375" as="sourcePoint" />
            <mxPoint x="711" y="345" as="targetPoint" />
            <Array as="points">
              <mxPoint x="711" y="375" />
            </Array>
          </mxGeometry>
        </mxCell>
        <mxCell id="nBL5Dy7I-TsLyUY3IK7N-25" value="&lt;div style=&quot;font-family: Menlo, Monaco, &amp;quot;Courier New&amp;quot;, monospace; line-height: 18px;&quot;&gt;&lt;span style=&quot;background-color: rgb(255, 255, 255);&quot;&gt;&amp;nbsp;célib &lt;br&gt;playground&lt;/span&gt;&lt;/div&gt;" style="whiteSpace=wrap;html=1;rounded=1;sketch=1;fillColor=#b0e3e6;strokeColor=#0e8088;" vertex="1" parent="WIyWlLk6GJQsqaUBKTNV-1">
          <mxGeometry x="662" y="455" width="99" height="52" as="geometry" />
        </mxCell>
        <mxCell id="nBL5Dy7I-TsLyUY3IK7N-26" value="" style="endArrow=none;html=1;rounded=0;sketch=1;entryX=0.5;entryY=1;entryDx=0;entryDy=0;" edge="1" parent="WIyWlLk6GJQsqaUBKTNV-1">
          <mxGeometry width="50" height="50" relative="1" as="geometry">
            <mxPoint x="712" y="456" as="sourcePoint" />
            <mxPoint x="712" y="426" as="targetPoint" />
            <Array as="points">
              <mxPoint x="712" y="456" />
            </Array>
          </mxGeometry>
        </mxCell>
        <mxCell id="nBL5Dy7I-TsLyUY3IK7N-34" value="계약서&amp;nbsp;" style="whiteSpace=wrap;html=1;rounded=1;sketch=1;fillColor=#d5e8d4;strokeColor=#82b366;" vertex="1" parent="WIyWlLk6GJQsqaUBKTNV-1">
          <mxGeometry x="835" y="234" width="120" height="60" as="geometry" />
        </mxCell>
        <mxCell id="nBL5Dy7I-TsLyUY3IK7N-36" value="결제 창 (토스)" style="whiteSpace=wrap;html=1;rounded=1;sketch=1;fillColor=#d5e8d4;strokeColor=#82b366;" vertex="1" parent="WIyWlLk6GJQsqaUBKTNV-1">
          <mxGeometry x="835" y="304" width="120" height="60" as="geometry" />
        </mxCell>
        <mxCell id="nBL5Dy7I-TsLyUY3IK7N-37" value="" style="edgeStyle=orthogonalEdgeStyle;rounded=0;sketch=1;orthogonalLoop=1;jettySize=auto;html=1;fontColor=#000000;entryX=0;entryY=0.5;entryDx=0;entryDy=0;" edge="1" parent="WIyWlLk6GJQsqaUBKTNV-1" target="nBL5Dy7I-TsLyUY3IK7N-36">
          <mxGeometry relative="1" as="geometry">
            <mxPoint x="770.0000000000002" y="204" as="sourcePoint" />
            <mxPoint x="805" y="344" as="targetPoint" />
            <Array as="points">
              <mxPoint x="805" y="204" />
              <mxPoint x="805" y="334" />
            </Array>
          </mxGeometry>
        </mxCell>
        <mxCell id="nBL5Dy7I-TsLyUY3IK7N-38" value="증빙 서류 발급" style="whiteSpace=wrap;html=1;rounded=1;sketch=1;fillColor=#d5e8d4;strokeColor=#82b366;" vertex="1" parent="WIyWlLk6GJQsqaUBKTNV-1">
          <mxGeometry x="835" y="384" width="120" height="60" as="geometry" />
        </mxCell>
        <mxCell id="nBL5Dy7I-TsLyUY3IK7N-39" value="" style="edgeStyle=orthogonalEdgeStyle;rounded=0;sketch=1;orthogonalLoop=1;jettySize=auto;html=1;fontColor=#000000;entryX=-0.01;entryY=0.605;entryDx=0;entryDy=0;entryPerimeter=0;" edge="1" parent="WIyWlLk6GJQsqaUBKTNV-1" target="nBL5Dy7I-TsLyUY3IK7N-38">
          <mxGeometry relative="1" as="geometry">
            <mxPoint x="770.0000000000002" y="204" as="sourcePoint" />
            <mxPoint x="834.9999999999998" y="334" as="targetPoint" />
            <Array as="points">
              <mxPoint x="805" y="204" />
              <mxPoint x="805" y="420" />
            </Array>
          </mxGeometry>
        </mxCell>
        <mxCell id="nBL5Dy7I-TsLyUY3IK7N-40" value="&amp;nbsp; 투어 신청 변경&amp;nbsp;&amp;nbsp;" style="shape=parallelogram;perimeter=parallelogramPerimeter;whiteSpace=wrap;html=1;fixedSize=1;labelBackgroundColor=#FFFFFF;sketch=1;fillColor=#f8cecc;strokeColor=#b85450;" vertex="1" parent="WIyWlLk6GJQsqaUBKTNV-1">
          <mxGeometry x="486" y="287" width="119" height="60" as="geometry" />
        </mxCell>
        <mxCell id="nBL5Dy7I-TsLyUY3IK7N-43" value="" style="endArrow=classic;html=1;rounded=0;sketch=1;fontColor=#000000;entryX=0;entryY=0.5;entryDx=0;entryDy=0;" edge="1" parent="WIyWlLk6GJQsqaUBKTNV-1" target="nBL5Dy7I-TsLyUY3IK7N-40">
          <mxGeometry width="50" height="50" relative="1" as="geometry">
            <mxPoint x="420" y="316" as="sourcePoint" />
            <mxPoint x="469.5" y="274" as="targetPoint" />
          </mxGeometry>
        </mxCell>
        <mxCell id="nBL5Dy7I-TsLyUY3IK7N-44" value="" style="endArrow=classic;html=1;rounded=0;sketch=1;fontColor=#000000;entryX=1;entryY=0.5;entryDx=0;entryDy=0;exitX=0.5;exitY=1;exitDx=0;exitDy=0;" edge="1" parent="WIyWlLk6GJQsqaUBKTNV-1" source="nBL5Dy7I-TsLyUY3IK7N-40" target="nBL5Dy7I-TsLyUY3IK7N-7">
          <mxGeometry width="50" height="50" relative="1" as="geometry">
            <mxPoint x="525" y="347" as="sourcePoint" />
            <mxPoint x="525" y="414" as="targetPoint" />
            <Array as="points">
              <mxPoint x="545" y="414" />
            </Array>
          </mxGeometry>
        </mxCell>
        <mxCell id="nBL5Dy7I-TsLyUY3IK7N-45" value="회원 정보 수정" style="shape=parallelogram;perimeter=parallelogramPerimeter;whiteSpace=wrap;html=1;fixedSize=1;labelBackgroundColor=#FFFFFF;sketch=1;fillColor=#f8cecc;strokeColor=#b85450;" vertex="1" parent="WIyWlLk6GJQsqaUBKTNV-1">
          <mxGeometry x="186" y="233" width="114" height="60" as="geometry" />
        </mxCell>
        <mxCell id="nBL5Dy7I-TsLyUY3IK7N-46" value="" style="endArrow=classic;html=1;rounded=0;sketch=1;fontColor=#000000;entryX=0;entryY=0.5;entryDx=0;entryDy=0;" edge="1" parent="WIyWlLk6GJQsqaUBKTNV-1" target="nBL5Dy7I-TsLyUY3IK7N-45">
          <mxGeometry width="50" height="50" relative="1" as="geometry">
            <mxPoint x="120" y="262" as="sourcePoint" />
            <mxPoint x="169.5" y="220" as="targetPoint" />
          </mxGeometry>
        </mxCell>
        <mxCell id="nBL5Dy7I-TsLyUY3IK7N-47" value="" style="endArrow=classic;html=1;rounded=0;sketch=1;fontColor=#000000;entryX=1;entryY=0.5;entryDx=0;entryDy=0;exitX=0.428;exitY=0.987;exitDx=0;exitDy=0;exitPerimeter=0;" edge="1" parent="WIyWlLk6GJQsqaUBKTNV-1" source="nBL5Dy7I-TsLyUY3IK7N-45">
          <mxGeometry width="50" height="50" relative="1" as="geometry">
            <mxPoint x="225" y="293" as="sourcePoint" />
            <mxPoint x="169.5" y="360" as="targetPoint" />
            <Array as="points">
              <mxPoint x="235" y="360" />
            </Array>
          </mxGeometry>
        </mxCell>
        <mxCell id="nBL5Dy7I-TsLyUY3IK7N-48" value="" style="endArrow=classic;html=1;rounded=0;sketch=1;fontColor=#000000;entryX=0.5;entryY=0;entryDx=0;entryDy=0;" edge="1" parent="WIyWlLk6GJQsqaUBKTNV-1" target="nBL5Dy7I-TsLyUY3IK7N-6">
          <mxGeometry width="50" height="50" relative="1" as="geometry">
            <mxPoint x="615" y="100" as="sourcePoint" />
            <mxPoint x="665" y="50" as="targetPoint" />
          </mxGeometry>
        </mxCell>
        <mxCell id="nBL5Dy7I-TsLyUY3IK7N-49" value="" style="endArrow=classic;html=1;rounded=0;sketch=1;fontColor=#000000;entryX=0.656;entryY=-0.058;entryDx=0;entryDy=0;entryPerimeter=0;" edge="1" parent="WIyWlLk6GJQsqaUBKTNV-1" target="nBL5Dy7I-TsLyUY3IK7N-9">
          <mxGeometry width="50" height="50" relative="1" as="geometry">
            <mxPoint x="615" y="100" as="sourcePoint" />
            <mxPoint x="530" y="140" as="targetPoint" />
          </mxGeometry>
        </mxCell>
        <mxCell id="nBL5Dy7I-TsLyUY3IK7N-50" value="" style="endArrow=classic;html=1;rounded=0;sketch=1;fontColor=#000000;entryX=0.407;entryY=-0.059;entryDx=0;entryDy=0;entryPerimeter=0;" edge="1" parent="WIyWlLk6GJQsqaUBKTNV-1" target="nBL5Dy7I-TsLyUY3IK7N-15">
          <mxGeometry width="50" height="50" relative="1" as="geometry">
            <mxPoint x="615" y="100" as="sourcePoint" />
            <mxPoint x="880" y="130" as="targetPoint" />
          </mxGeometry>
        </mxCell>
        <mxCell id="nBL5Dy7I-TsLyUY3IK7N-52" value="" style="endArrow=classic;html=1;rounded=0;sketch=1;fontColor=#000000;entryX=0.5;entryY=0;entryDx=0;entryDy=0;" edge="1" parent="WIyWlLk6GJQsqaUBKTNV-1" target="nBL5Dy7I-TsLyUY3IK7N-53">
          <mxGeometry width="50" height="50" relative="1" as="geometry">
            <mxPoint x="615" y="99.53999999999999" as="sourcePoint" />
            <mxPoint x="1000" y="130" as="targetPoint" />
          </mxGeometry>
        </mxCell>
        <mxCell id="nBL5Dy7I-TsLyUY3IK7N-53" value="고객 문의&amp;nbsp;" style="rounded=1;whiteSpace=wrap;html=1;sketch=1;fillColor=#e1d5e7;strokeColor=#9673a6;" vertex="1" parent="WIyWlLk6GJQsqaUBKTNV-1">
          <mxGeometry x="1000" y="174" width="120" height="60" as="geometry" />
        </mxCell>
        <mxCell id="nBL5Dy7I-TsLyUY3IK7N-54" value="채널톡" style="whiteSpace=wrap;html=1;rounded=1;sketch=1;fillColor=#d5e8d4;strokeColor=#82b366;" vertex="1" parent="WIyWlLk6GJQsqaUBKTNV-1">
          <mxGeometry x="1010.5" y="276" width="99" height="52" as="geometry" />
        </mxCell>
        <mxCell id="nBL5Dy7I-TsLyUY3IK7N-55" value="" style="endArrow=none;html=1;rounded=0;sketch=1;entryX=0.5;entryY=1;entryDx=0;entryDy=0;exitX=0.5;exitY=0;exitDx=0;exitDy=0;" edge="1" parent="WIyWlLk6GJQsqaUBKTNV-1" source="nBL5Dy7I-TsLyUY3IK7N-54">
          <mxGeometry width="50" height="50" relative="1" as="geometry">
            <mxPoint x="1060" y="270" as="sourcePoint" />
            <mxPoint x="1060" y="232" as="targetPoint" />
            <Array as="points">
              <mxPoint x="1060" y="262" />
            </Array>
          </mxGeometry>
        </mxCell>
        <mxCell id="nBL5Dy7I-TsLyUY3IK7N-60" value="" style="endArrow=none;html=1;rounded=0;sketch=1;entryX=0.5;entryY=1;entryDx=0;entryDy=0;" edge="1" parent="WIyWlLk6GJQsqaUBKTNV-1">
          <mxGeometry width="50" height="50" relative="1" as="geometry">
            <mxPoint x="1060" y="350" as="sourcePoint" />
            <mxPoint x="1060" y="328" as="targetPoint" />
            <Array as="points" />
          </mxGeometry>
        </mxCell>
        <mxCell id="nBL5Dy7I-TsLyUY3IK7N-61" value="공지사항" style="whiteSpace=wrap;html=1;rounded=1;sketch=1;fillColor=#d5e8d4;strokeColor=#82b366;" vertex="1" parent="WIyWlLk6GJQsqaUBKTNV-1">
          <mxGeometry x="1010.5" y="347" width="99" height="52" as="geometry" />
        </mxCell>
        <mxCell id="nBL5Dy7I-TsLyUY3IK7N-62" value="FAQ" style="whiteSpace=wrap;html=1;rounded=1;sketch=1;fillColor=#d5e8d4;strokeColor=#82b366;" vertex="1" parent="WIyWlLk6GJQsqaUBKTNV-1">
          <mxGeometry x="1010.5" y="420" width="99" height="52" as="geometry" />
        </mxCell>
        <mxCell id="nBL5Dy7I-TsLyUY3IK7N-65" value="" style="endArrow=none;html=1;rounded=0;sketch=1;entryX=0.5;entryY=1;entryDx=0;entryDy=0;" edge="1" parent="WIyWlLk6GJQsqaUBKTNV-1">
          <mxGeometry width="50" height="50" relative="1" as="geometry">
            <mxPoint x="1060" y="420" as="sourcePoint" />
            <mxPoint x="1060" y="398" as="targetPoint" />
            <Array as="points" />
          </mxGeometry>
        </mxCell>
        <mxCell id="nBL5Dy7I-TsLyUY3IK7N-67" value="" style="endArrow=none;dashed=1;html=1;dashPattern=1 3;strokeWidth=2;rounded=0;sketch=1;fontColor=#000000;" edge="1" parent="WIyWlLk6GJQsqaUBKTNV-1">
          <mxGeometry width="50" height="50" relative="1" as="geometry">
            <mxPoint x="0.001428571428572667" y="530" as="sourcePoint" />
            <mxPoint x="1131.43" y="540" as="targetPoint" />
          </mxGeometry>
        </mxCell>
        <mxCell id="nBL5Dy7I-TsLyUY3IK7N-76" value="" style="edgeStyle=orthogonalEdgeStyle;rounded=0;sketch=1;orthogonalLoop=1;jettySize=auto;html=1;fontColor=#000000;" edge="1" parent="WIyWlLk6GJQsqaUBKTNV-1" source="nBL5Dy7I-TsLyUY3IK7N-68" target="nBL5Dy7I-TsLyUY3IK7N-73">
          <mxGeometry relative="1" as="geometry" />
        </mxCell>
        <mxCell id="nBL5Dy7I-TsLyUY3IK7N-68" value="예약/ 이용 가능 시설&amp;nbsp;" style="rounded=1;whiteSpace=wrap;html=1;sketch=1;fillColor=#e1d5e7;strokeColor=#9673a6;" vertex="1" parent="WIyWlLk6GJQsqaUBKTNV-1">
          <mxGeometry x="109" y="550" width="120" height="60" as="geometry" />
        </mxCell>
        <mxCell id="nBL5Dy7I-TsLyUY3IK7N-69" value="예약 확인" style="whiteSpace=wrap;html=1;rounded=1;sketch=1;fillColor=#d5e8d4;strokeColor=#82b366;" vertex="1" parent="WIyWlLk6GJQsqaUBKTNV-1">
          <mxGeometry x="130" y="708" width="99" height="52" as="geometry" />
        </mxCell>
        <mxCell id="nBL5Dy7I-TsLyUY3IK7N-73" value="수영장" style="shape=parallelogram;perimeter=parallelogramPerimeter;whiteSpace=wrap;html=1;fixedSize=1;labelBackgroundColor=#FFFFFF;sketch=1;fillColor=#f8cecc;strokeColor=#b85450;" vertex="1" parent="WIyWlLk6GJQsqaUBKTNV-1">
          <mxGeometry x="290" y="550" width="114" height="60" as="geometry" />
        </mxCell>
        <mxCell id="nBL5Dy7I-TsLyUY3IK7N-74" value="공용시설" style="shape=parallelogram;perimeter=parallelogramPerimeter;whiteSpace=wrap;html=1;fixedSize=1;labelBackgroundColor=#FFFFFF;sketch=1;fillColor=#f8cecc;strokeColor=#b85450;" vertex="1" parent="WIyWlLk6GJQsqaUBKTNV-1">
          <mxGeometry x="270" y="700" width="114" height="60" as="geometry" />
        </mxCell>
        <mxCell id="nBL5Dy7I-TsLyUY3IK7N-75" value="회의실&amp;nbsp;" style="shape=parallelogram;perimeter=parallelogramPerimeter;whiteSpace=wrap;html=1;fixedSize=1;labelBackgroundColor=#FFFFFF;sketch=1;fillColor=#f8cecc;strokeColor=#b85450;" vertex="1" parent="WIyWlLk6GJQsqaUBKTNV-1">
          <mxGeometry x="280" y="630" width="114" height="60" as="geometry" />
        </mxCell>
        <mxCell id="nBL5Dy7I-TsLyUY3IK7N-78" value="" style="edgeStyle=orthogonalEdgeStyle;rounded=0;sketch=1;orthogonalLoop=1;jettySize=auto;html=1;fontColor=#000000;entryX=0;entryY=0.5;entryDx=0;entryDy=0;" edge="1" parent="WIyWlLk6GJQsqaUBKTNV-1" target="nBL5Dy7I-TsLyUY3IK7N-75">
          <mxGeometry relative="1" as="geometry">
            <mxPoint x="249.99999999999977" y="579.86" as="sourcePoint" />
            <mxPoint x="300" y="579.86" as="targetPoint" />
            <Array as="points">
              <mxPoint x="250" y="660" />
            </Array>
          </mxGeometry>
        </mxCell>
        <mxCell id="nBL5Dy7I-TsLyUY3IK7N-79" value="" style="edgeStyle=orthogonalEdgeStyle;rounded=0;sketch=1;orthogonalLoop=1;jettySize=auto;html=1;fontColor=#000000;" edge="1" parent="WIyWlLk6GJQsqaUBKTNV-1" target="nBL5Dy7I-TsLyUY3IK7N-74">
          <mxGeometry relative="1" as="geometry">
            <mxPoint x="249.99999999999977" y="580" as="sourcePoint" />
            <mxPoint x="290" y="670.14" as="targetPoint" />
            <Array as="points">
              <mxPoint x="250" y="730" />
            </Array>
          </mxGeometry>
        </mxCell>
        <mxCell id="nBL5Dy7I-TsLyUY3IK7N-80" value="" style="endArrow=classic;html=1;rounded=0;sketch=1;fontColor=#000000;exitX=0.447;exitY=1.033;exitDx=0;exitDy=0;exitPerimeter=0;entryX=0.5;entryY=1;entryDx=0;entryDy=0;" edge="1" parent="WIyWlLk6GJQsqaUBKTNV-1" source="nBL5Dy7I-TsLyUY3IK7N-74" target="nBL5Dy7I-TsLyUY3IK7N-69">
          <mxGeometry width="50" height="50" relative="1" as="geometry">
            <mxPoint x="350" y="730" as="sourcePoint" />
            <mxPoint x="180" y="810" as="targetPoint" />
            <Array as="points">
              <mxPoint x="320" y="810" />
              <mxPoint x="180" y="810" />
            </Array>
          </mxGeometry>
        </mxCell>
        <mxCell id="nBL5Dy7I-TsLyUY3IK7N-81" value="&lt;span style=&quot;font-family: Menlo, Monaco, &amp;quot;Courier New&amp;quot;, monospace; background-color: rgb(255, 255, 255);&quot;&gt;célib&lt;/span&gt;&lt;br style=&quot;font-family: Menlo, Monaco, &amp;quot;Courier New&amp;quot;, monospace;&quot;&gt;&lt;span style=&quot;font-family: Menlo, Monaco, &amp;quot;Courier New&amp;quot;, monospace; background-color: rgb(255, 255, 255);&quot;&gt;playground&amp;nbsp;&lt;br&gt;출입카드(QR)&lt;br&gt;&lt;/span&gt;" style="rounded=1;whiteSpace=wrap;html=1;sketch=1;fillColor=#e1d5e7;strokeColor=#9673a6;" vertex="1" parent="WIyWlLk6GJQsqaUBKTNV-1">
          <mxGeometry x="510" y="570" width="120" height="60" as="geometry" />
        </mxCell>
        <mxCell id="nBL5Dy7I-TsLyUY3IK7N-82" value="&lt;font size=&quot;1&quot; color=&quot;#ff3399&quot; style=&quot;&quot;&gt;&lt;b style=&quot;font-size: 17px;&quot;&gt;미확정&lt;/b&gt;&lt;/font&gt;" style="text;html=1;strokeColor=none;fillColor=none;align=center;verticalAlign=middle;whiteSpace=wrap;rounded=0;labelBackgroundColor=#FFFFFF;sketch=1;fontColor=#000000;" vertex="1" parent="WIyWlLk6GJQsqaUBKTNV-1">
          <mxGeometry x="20" y="540" width="70" height="40" as="geometry" />
        </mxCell>
      </root>
    </mxGraphModel>
  </diagram>
</mxfile>
